<?xml version="1.0" encoding="UTF-8"?><svg id="uuid-ce9bfd48-67b3-4fd8-ac17-3f86359b8f9d" xmlns="http://www.w3.org/2000/svg" xmlns:xlink="http://www.w3.org/1999/xlink" viewBox="0 0 677.99 323.91"><defs><style>.uuid-3fc82454-dc58-41fc-b0cc-e1d088c98859{fill:url(#uuid-35bfa845-ad70-4459-a848-6a8d732ee53e);}.uuid-b297aa08-989d-4f22-bb06-9123dcb3c679{fill:url(#uuid-43c18bd6-628d-498f-9197-65a39b16de9b);}.uuid-410abe8e-53ea-479d-9496-36dee27c1597{fill:url(#uuid-92e47389-33e3-4db6-aed5-183ea8fc8fa2);}.uuid-f487bb19-2da2-448c-a1ea-2e1fe744f45a{fill:url(#uuid-b879942e-b11d-420b-85b4-4607e0cb40f2);}.uuid-2c016aa5-46a7-474e-b7e8-825f2a966084{fill:url(#uuid-f3313650-445c-4836-8309-0bb260595878);}.uuid-32b76f5b-2d3b-44fc-b60b-1baedb9de01e{fill:url(#uuid-12d24b2e-25ee-4f3e-a93e-c4d6e51db3f7);}.uuid-0e3ca00f-5b1e-4d72-ba21-ed28b06e9d26{fill:url(#uuid-a1a57ec1-5e2d-411b-850d-720502175bd1);}.uuid-51d0aa61-6922-4d6f-82d7-0a5a14f79309{fill:url(#uuid-01f7ebd8-05d3-4c81-a80c-e134189d00df);}.uuid-c8205370-42ca-4cff-b498-d267efae2d3b{fill:url(#uuid-7b3d48d4-58d2-4a86-ab8f-234d8426a4c6);}.uuid-422a0fb3-ad8a-4de1-9b3f-bcb0a664071b{fill:#fff;}.uuid-d134edf9-a43f-465a-8051-6720aa260217{fill:url(#uuid-c878ca77-a828-4f3a-aa1d-60fac74210cb);}.uuid-d5f79abd-c7cd-423f-9846-3ba3d8e4d5b0{fill:url(#uuid-f0a2d031-abb8-4036-97d4-57b0a90baa07);}.uuid-fceecb1d-f49f-4ec4-a272-825cbad6ec9c{fill:url(#uuid-741de197-423d-4802-978c-fffaeb2d126a);}.uuid-7a32c0c8-72c0-4a91-89b6-7607b47a9849{fill:url(#uuid-497b1fd5-9089-4f9e-941b-2f0bde52644a);}.uuid-3b8358c8-68df-4c39-86b0-cd401f10f792{fill:url(#uuid-5e5d8324-39ed-4426-afe7-9b6223d1b087);}.uuid-731834b8-ff30-4ca6-b891-3519ee2e2f04{fill:url(#uuid-b3caf435-7b0f-4fcf-9b84-9478120f0a4f);}.uuid-d26c38e7-916b-49ae-a342-1b7ead705dc7{fill:url(#uuid-f42c22ba-45af-4703-87c9-7d2a7cb6a182);}.uuid-54d7f33a-6f32-4532-8d3f-f11c52f381bf{fill:url(#uuid-24b3fa17-f592-43b9-af18-ad98f1aac538);}.uuid-7c171475-053e-4d0e-983f-51c7b7e2d4b0{fill:url(#uuid-08851922-6538-43d0-9b6b-e3cd37367307);}.uuid-514d1200-00c8-4786-a275-0d9482a524d4{fill:url(#uuid-de192f72-09fd-4d55-90db-e877ca791628);}.uuid-c60a0447-eea4-4844-b69f-02c44ad8dfd0{fill:url(#uuid-56bac97f-6611-4b63-963c-07022d309f6a);}.uuid-e006ec41-769b-4541-9e69-62f579554e88{fill:url(#uuid-51a452db-e39e-4616-ba51-28b24970e8b0);}.uuid-e39f087f-d6bd-4440-9cf5-c4f4455f9f18{fill:url(#uuid-4b2daa28-4b02-4918-8c2c-cfa7dc2a5434);}.uuid-7fca5799-145b-4c83-9a13-eb84a5bb37a3{fill:url(#uuid-c98cf559-978e-446c-b7bb-086e91640884);}.uuid-ff09e2a8-abd8-4316-b844-eac54321fe8c{fill:url(#uuid-5667c5f6-e276-44eb-87f2-47d718c2dc8f);}.uuid-77e1055b-39a6-4299-907a-c78aa999532a{fill:url(#uuid-98bc8e50-068a-4cda-ae46-a9a9a1ff11eb);}.uuid-56e1222b-2e2e-4373-9ed1-15eb4fcefc9d{fill:url(#uuid-ab3d14c5-4192-4674-9585-a1d9261fbb4a);}.uuid-c1a17f5f-b847-4700-91f8-98c78f65aaae{fill:url(#uuid-c2542022-abce-4674-b026-f004c136ec51);}.uuid-575a4b24-0dbb-4a4d-aadc-bee1d97469d7{fill:url(#uuid-5d010248-6873-48b6-87f6-1fcca93bc84c);}.uuid-94bfa4e8-b5db-4699-a04a-ef126dc967c1{fill:url(#uuid-7412de56-8d59-45c8-8e08-74fcb4ef4a4f);}.uuid-9501c1ba-913b-4deb-83f9-f740b9ed6fcc{fill:url(#uuid-5c2f0ab4-0bdc-4353-8a6f-5ae8950f54cf);}.uuid-6277168d-dbc0-42b9-ab3f-b9651a0e74ee{fill:url(#uuid-ab1137f0-6bd8-44c3-878d-34ec364b9c82);}.uuid-a435997f-a42c-4c8b-9b26-82ae056ffdef{fill:url(#uuid-aaa061bb-206f-4370-94a0-51d254ffb041);}.uuid-d1af2f82-b93e-4595-8e83-fd8ee64a6bc0{fill:url(#uuid-ac3a9638-8479-4e7c-8a86-cac148952691);}.uuid-172904eb-8f0f-44c0-9d81-2308f8e9a173{fill:url(#uuid-9cbfa3c3-d926-4fcb-9f04-e34617e53579);}.uuid-48003740-5d0d-471f-bdea-d3c79bbf2351{fill:url(#uuid-9e080f9d-232e-437f-b5ac-937b29e12be0);}.uuid-f98eb3f0-aaf2-4180-8026-1a8a712cfa2a{fill:url(#uuid-ed9ecd47-c792-4630-a0fb-7951b8ea75c4);}.uuid-2c9d2af7-63cf-4dae-bc9f-07d5aa1b6c1e{fill:url(#uuid-ab2dec99-0de9-4aa2-9887-8cebca24f808);}.uuid-e5946bc7-db87-4a3d-9d05-c7eb489663cd{fill:url(#uuid-b8c7b80a-e9de-4a18-ad3e-7847d562bad2);}.uuid-5902db8e-2249-4946-8a68-223f1888be28{fill:url(#uuid-5f7203b8-781b-4353-bdf0-7a61736e8777);}.uuid-b966d240-5c7d-4478-85ea-970368d8bf6e{fill:url(#uuid-e79c37db-a1d6-4994-a1fd-b5eacec9dd3e);}.uuid-b5cc75f9-429c-43a7-875a-7d552da0da70{fill:url(#uuid-e380e614-2a24-4313-8e98-eaddb707a116);}.uuid-2c142e25-7c66-4532-a313-268f9ac47062{fill:url(#uuid-5c52b628-19aa-42b1-ba80-be4e0c284106);}.uuid-662d96e1-4b13-460b-a1bf-339e46ee233b{fill:url(#uuid-a5401b28-f037-4772-b329-ac527bfe9e12);}.uuid-ae798777-a0f4-45b0-a2ad-77e8a2bd75bf{fill:url(#uuid-57d01c3d-945a-4ffa-9c0c-20f6e81591b4);}.uuid-3bc0592d-11ca-413c-9f0f-43b63d05029f{fill:url(#uuid-14e8a2c4-9694-4e27-909a-5db44a0218e8);}</style><linearGradient id="uuid-51a452db-e39e-4616-ba51-28b24970e8b0" x1="425.92" y1="289.25" x2="630.88" y2="289.25" gradientUnits="userSpaceOnUse"><stop offset="0" stop-color="#cce0f4"/><stop offset=".06" stop-color="#c2dcf2"/><stop offset=".17" stop-color="#a9d2ee"/><stop offset=".31" stop-color="#7fc2e7"/><stop offset=".46" stop-color="#46abdd"/><stop offset=".57" stop-color="#1e9cd7"/><stop offset=".87" stop-color="#0075be"/><stop offset=".99" stop-color="#005b97"/></linearGradient><linearGradient id="uuid-c2542022-abce-4674-b026-f004c136ec51" x1="543.22" y1="123.45" x2="606.82" y2="123.45" xlink:href="#uuid-51a452db-e39e-4616-ba51-28b24970e8b0"/><linearGradient id="uuid-98bc8e50-068a-4cda-ae46-a9a9a1ff11eb" x1="602.7" y1="149.61" x2="677.99" y2="149.61" xlink:href="#uuid-51a452db-e39e-4616-ba51-28b24970e8b0"/><linearGradient id="uuid-08851922-6538-43d0-9b6b-e3cd37367307" x1="535.99" y1="188.64" x2="640.34" y2="188.64" xlink:href="#uuid-51a452db-e39e-4616-ba51-28b24970e8b0"/><linearGradient id="uuid-f0a2d031-abb8-4036-97d4-57b0a90baa07" x1="166.92" y1="119.75" x2="179.39" y2="119.75" xlink:href="#uuid-51a452db-e39e-4616-ba51-28b24970e8b0"/><linearGradient id="uuid-aaa061bb-206f-4370-94a0-51d254ffb041" x1="175.23" y1="113.47" x2="177.81" y2="113.47" xlink:href="#uuid-51a452db-e39e-4616-ba51-28b24970e8b0"/><linearGradient id="uuid-f3313650-445c-4836-8309-0bb260595878" x1="175.5" y1="146.55" x2="210.11" y2="146.55" xlink:href="#uuid-51a452db-e39e-4616-ba51-28b24970e8b0"/><linearGradient id="uuid-e380e614-2a24-4313-8e98-eaddb707a116" x1="146.91" y1="50.59" x2="159.38" y2="50.59" xlink:href="#uuid-51a452db-e39e-4616-ba51-28b24970e8b0"/><linearGradient id="uuid-497b1fd5-9089-4f9e-941b-2f0bde52644a" x1="161.81" y1="63.76" x2="162.01" y2="63.76" xlink:href="#uuid-51a452db-e39e-4616-ba51-28b24970e8b0"/><linearGradient id="uuid-35bfa845-ad70-4459-a848-6a8d732ee53e" x1="163.77" y1="84" x2="163.79" y2="84" xlink:href="#uuid-51a452db-e39e-4616-ba51-28b24970e8b0"/><linearGradient id="uuid-57d01c3d-945a-4ffa-9c0c-20f6e81591b4" x1="161.81" y1="63.47" x2="161.83" y2="63.47" xlink:href="#uuid-51a452db-e39e-4616-ba51-28b24970e8b0"/><linearGradient id="uuid-43c18bd6-628d-498f-9197-65a39b16de9b" x1="163.61" y1="83.73" x2="163.79" y2="83.73" xlink:href="#uuid-51a452db-e39e-4616-ba51-28b24970e8b0"/><linearGradient id="uuid-de192f72-09fd-4d55-90db-e877ca791628" x1="143.46" y1="87.44" x2="155.93" y2="87.44" xlink:href="#uuid-51a452db-e39e-4616-ba51-28b24970e8b0"/><linearGradient id="uuid-5e5d8324-39ed-4426-afe7-9b6223d1b087" x1="158.36" y1="100.59" x2="158.56" y2="100.59" xlink:href="#uuid-51a452db-e39e-4616-ba51-28b24970e8b0"/><linearGradient id="uuid-5667c5f6-e276-44eb-87f2-47d718c2dc8f" x1="160.31" y1="120.85" x2="160.34" y2="120.85" xlink:href="#uuid-51a452db-e39e-4616-ba51-28b24970e8b0"/><linearGradient id="uuid-7412de56-8d59-45c8-8e08-74fcb4ef4a4f" x1="158.36" y1="100.31" x2="158.38" y2="100.31" xlink:href="#uuid-51a452db-e39e-4616-ba51-28b24970e8b0"/><linearGradient id="uuid-b8c7b80a-e9de-4a18-ad3e-7847d562bad2" x1="160.16" y1="120.58" x2="160.34" y2="120.58" xlink:href="#uuid-51a452db-e39e-4616-ba51-28b24970e8b0"/><linearGradient id="uuid-14e8a2c4-9694-4e27-909a-5db44a0218e8" x1="152.89" y1="161.91" x2="210.34" y2="161.91" xlink:href="#uuid-51a452db-e39e-4616-ba51-28b24970e8b0"/><linearGradient id="uuid-f42c22ba-45af-4703-87c9-7d2a7cb6a182" x1="176.74" y1="92.6" x2="210.34" y2="92.6" xlink:href="#uuid-51a452db-e39e-4616-ba51-28b24970e8b0"/><linearGradient id="uuid-24b3fa17-f592-43b9-af18-ad98f1aac538" x1="155.43" y1="100.4" x2="210.34" y2="100.4" xlink:href="#uuid-51a452db-e39e-4616-ba51-28b24970e8b0"/><linearGradient id="uuid-b879942e-b11d-420b-85b4-4607e0cb40f2" x1="167.49" y1="100.4" x2="209.6" y2="100.4" xlink:href="#uuid-51a452db-e39e-4616-ba51-28b24970e8b0"/><linearGradient id="uuid-c878ca77-a828-4f3a-aa1d-60fac74210cb" x1="177.02" y1="76.4" x2="179.42" y2="76.4" xlink:href="#uuid-51a452db-e39e-4616-ba51-28b24970e8b0"/><linearGradient id="uuid-56bac97f-6611-4b63-963c-07022d309f6a" x1="176.07" y1="108.78" x2="210.34" y2="108.78" xlink:href="#uuid-51a452db-e39e-4616-ba51-28b24970e8b0"/><linearGradient id="uuid-741de197-423d-4802-978c-fffaeb2d126a" x1="145.81" y1="130.37" x2="158.28" y2="130.37" xlink:href="#uuid-51a452db-e39e-4616-ba51-28b24970e8b0"/><linearGradient id="uuid-5c52b628-19aa-42b1-ba80-be4e0c284106" x1="162.86" y1="140.71" x2="163.04" y2="140.71" xlink:href="#uuid-51a452db-e39e-4616-ba51-28b24970e8b0"/><linearGradient id="uuid-7b3d48d4-58d2-4a86-ab8f-234d8426a4c6" x1="162.08" y1="144.75" x2="165.95" y2="144.75" xlink:href="#uuid-51a452db-e39e-4616-ba51-28b24970e8b0"/><linearGradient id="uuid-9e080f9d-232e-437f-b5ac-937b29e12be0" x1="159.18" y1="143.29" x2="162.08" y2="143.29" xlink:href="#uuid-51a452db-e39e-4616-ba51-28b24970e8b0"/><linearGradient id="uuid-ac3a9638-8479-4e7c-8a86-cac148952691" x1="155.43" y1="139.57" x2="173.37" y2="139.57" xlink:href="#uuid-51a452db-e39e-4616-ba51-28b24970e8b0"/><linearGradient id="uuid-12d24b2e-25ee-4f3e-a93e-c4d6e51db3f7" x1="162.57" y1="140.62" x2="162.85" y2="140.62" xlink:href="#uuid-51a452db-e39e-4616-ba51-28b24970e8b0"/><linearGradient id="uuid-ed9ecd47-c792-4630-a0fb-7951b8ea75c4" x1="188.69" y1="39.47" x2="196.69" y2="39.47" xlink:href="#uuid-51a452db-e39e-4616-ba51-28b24970e8b0"/><linearGradient id="uuid-a1a57ec1-5e2d-411b-850d-720502175bd1" x1="182.22" y1="20.77" x2="203.15" y2="20.77" xlink:href="#uuid-51a452db-e39e-4616-ba51-28b24970e8b0"/><linearGradient id="uuid-5d010248-6873-48b6-87f6-1fcca93bc84c" x1="170.73" y1="5.66" x2="214.64" y2="5.66" xlink:href="#uuid-51a452db-e39e-4616-ba51-28b24970e8b0"/><linearGradient id="uuid-01f7ebd8-05d3-4c81-a80c-e134189d00df" x1="176.45" y1="13.19" x2="208.92" y2="13.19" xlink:href="#uuid-51a452db-e39e-4616-ba51-28b24970e8b0"/><linearGradient id="uuid-c98cf559-978e-446c-b7bb-086e91640884" x1="188.15" y1="28.57" x2="197.22" y2="28.57" xlink:href="#uuid-51a452db-e39e-4616-ba51-28b24970e8b0"/><linearGradient id="uuid-a5401b28-f037-4772-b329-ac527bfe9e12" x1="441.55" y1="77.22" x2="534.53" y2="77.22" xlink:href="#uuid-51a452db-e39e-4616-ba51-28b24970e8b0"/><linearGradient id="uuid-ab1137f0-6bd8-44c3-878d-34ec364b9c82" x1="409.41" y1="114.73" x2="482.84" y2="114.73" xlink:href="#uuid-51a452db-e39e-4616-ba51-28b24970e8b0"/><linearGradient id="uuid-92e47389-33e3-4db6-aed5-183ea8fc8fa2" x1="392.53" y1="203.94" x2="496.12" y2="203.94" xlink:href="#uuid-51a452db-e39e-4616-ba51-28b24970e8b0"/><linearGradient id="uuid-5f7203b8-781b-4353-bdf0-7a61736e8777" y1="155.3" x2="454.52" y2="155.3" xlink:href="#uuid-51a452db-e39e-4616-ba51-28b24970e8b0"/><linearGradient id="uuid-e79c37db-a1d6-4994-a1fd-b5eacec9dd3e" x1="451.49" y1="175.88" x2="524.92" y2="175.88" xlink:href="#uuid-51a452db-e39e-4616-ba51-28b24970e8b0"/><linearGradient id="uuid-b3caf435-7b0f-4fcf-9b84-9478120f0a4f" x1="0" y1="149.32" x2="129.39" y2="149.32" xlink:href="#uuid-51a452db-e39e-4616-ba51-28b24970e8b0"/><linearGradient id="uuid-4b2daa28-4b02-4918-8c2c-cfa7dc2a5434" x1="17.98" y1="210.85" x2="42.92" y2="210.85" xlink:href="#uuid-51a452db-e39e-4616-ba51-28b24970e8b0"/><linearGradient id="uuid-ab3d14c5-4192-4674-9585-a1d9261fbb4a" x1="67.5" y1="184.32" x2="142" y2="184.32" xlink:href="#uuid-51a452db-e39e-4616-ba51-28b24970e8b0"/><linearGradient id="uuid-5c2f0ab4-0bdc-4353-8a6f-5ae8950f54cf" x1="282.79" y1="143.05" x2="391.07" y2="143.05" xlink:href="#uuid-51a452db-e39e-4616-ba51-28b24970e8b0"/><linearGradient id="uuid-ab2dec99-0de9-4aa2-9887-8cebca24f808" x1="221.1" y1="76.18" x2="292.08" y2="76.18" xlink:href="#uuid-51a452db-e39e-4616-ba51-28b24970e8b0"/><linearGradient id="uuid-9cbfa3c3-d926-4fcb-9f04-e34617e53579" x1="235.86" y1="102.55" x2="327.07" y2="102.55" xlink:href="#uuid-51a452db-e39e-4616-ba51-28b24970e8b0"/></defs><ellipse class="uuid-e006ec41-769b-4541-9e69-62f579554e88" cx="528.4" cy="289.25" rx="102.48" ry="34.66"/><path class="uuid-c1a17f5f-b847-4700-91f8-98c78f65aaae" d="M606.82,68.37l-23.04,85.62c-19.8,7.94-39.93,37.31-40.56,38.23l35.06-137.54,28.54,13.69Z"/><path class="uuid-77e1055b-39a6-4299-907a-c78aa999532a" d="M675.25,227.68h-30.26c3.27-8.42,4.64-40-4.81-70.18-9.46-30.18-37.48-54.04-37.48-54.04l7.9-31.93c7.28,4.83,40.58,30.35,57.43,73.34,16.85,42.98,7.22,82.81,7.22,82.81Z"/><path class="uuid-7c171475-053e-4d0e-983f-51c7b7e2d4b0" d="M640.34,180.31s-24.92-4.21-46.24,9.47c-21.32,13.69-27.17,37.9-27.17,37.9h-30.94s7.22-35.44,33.01-57.55c25.79-22.1,61.55-20.52,61.55-20.52,4.81,2.98,9.79,30.7,9.79,30.7Z"/><path class="uuid-d5f79abd-c7cd-423f-9846-3ba3d8e4d5b0" d="M179.28,118.28c-.22-1.45-.75-2.72-1.47-3.73l-2.58-2.16h-.01c-1-.45-2.11-.58-3.24-.31-3.38.8-5.59,4.89-4.95,9.13.65,4.24,3.91,7.02,7.29,6.21,1.29-.31,2.41-1.09,3.26-2.17v-.02c.48-.59.88-1.29,1.18-2.05h0c.57-1.47.78-3.17.52-4.9ZM173.45,122.7c-1.36.33-2.67-.79-2.93-2.5s.63-3.35,1.99-3.68c1.36-.32,2.68.8,2.94,2.5.26,1.71-.64,3.35-2,3.68Z"/><path class="uuid-a435997f-a42c-4c8b-9b26-82ae056ffdef" d="M177.81,114.55c-.7-1-1.59-1.73-2.58-2.16l2.58,2.16Z"/><polygon class="uuid-2c016aa5-46a7-474e-b7e8-825f2a966084" points="178.46 122.79 210.11 163.21 210.11 170.31 175.5 125.63 178.46 122.79"/><path class="uuid-b5cc75f9-429c-43a7-875a-7d552da0da70" d="M153.15,42.78c-3.45,0-6.24,3.5-6.24,7.81s2.79,7.82,6.24,7.82c1.17,0,2.26-.39,3.19-1.1,0,0,.01,0,.01-.01l2.17-2.76h0c.55-1.16.86-2.5.86-3.95,0-4.31-2.79-7.81-6.23-7.81ZM153.29,53.56c-1.38,0-2.51-1.41-2.51-3.15s1.13-3.15,2.51-3.15,2.52,1.4,2.52,3.15-1.13,3.15-2.52,3.15Z"/><line class="uuid-7a32c0c8-72c0-4a91-89b6-7607b47a9849" x1="162.01" y1="63.87" x2="161.81" y2="63.64"/><line class="uuid-3fc82454-dc58-41fc-b0cc-e1d088c98859" x1="163.79" y1="83.84" x2="163.77" y2="84.17"/><line class="uuid-ae798777-a0f4-45b0-a2ad-77e8a2bd75bf" x1="161.83" y1="63.29" x2="161.81" y2="63.64"/><line class="uuid-b297aa08-989d-4f22-bb06-9123dcb3c679" x1="163.79" y1="83.84" x2="163.61" y2="83.62"/><path class="uuid-514d1200-00c8-4786-a275-0d9482a524d4" d="M149.7,79.63c-3.45,0-6.24,3.49-6.24,7.81s2.79,7.82,6.24,7.82c1.17,0,2.27-.41,3.2-1.11h-.01c.91-.68,1.66-1.64,2.18-2.77.55-1.15.86-2.5.86-3.94,0-4.32-2.79-7.81-6.23-7.81ZM149.84,90.4c-1.39,0-2.51-1.4-2.51-3.15s1.12-3.15,2.51-3.15,2.51,1.41,2.51,3.15-1.12,3.15-2.51,3.15Z"/><line class="uuid-3b8358c8-68df-4c39-86b0-cd401f10f792" x1="158.56" y1="100.71" x2="158.36" y2="100.47"/><line class="uuid-ff09e2a8-abd8-4316-b844-eac54321fe8c" x1="160.34" y1="120.69" x2="160.31" y2="121.01"/><line class="uuid-94bfa4e8-b5db-4699-a04a-ef126dc967c1" x1="158.38" y1="100.14" x2="158.36" y2="100.47"/><line class="uuid-e5946bc7-db87-4a3d-9d05-c7eb489663cd" x1="160.34" y1="120.69" x2="160.16" y2="120.47"/><path class="uuid-3bc0592d-11ca-413c-9f0f-43b63d05029f" d="M210.34,183v49.46h-33.6v-85.14l-3.37-4.23-2.95-3.68-10.49-13.16-2.98-3.73.39-5.24,1.02-16.81-5.46-6.33h-.01c.91-.68,1.66-1.64,2.18-2.77l3.84,4.46,3,3.46-.37,4.88-1.2,16.51,14.47,18.04,1.93,2.4.97,1.21,32.63,40.67Z"/><polygon class="uuid-d26c38e7-916b-49ae-a342-1b7ead705dc7" points="176.74 72.79 176.74 54.88 210.34 54.88 210.34 130.32 176.74 72.79"/><path class="uuid-54d7f33a-6f32-4532-8d3f-f11c52f381bf" d="M210.34,143.14v5.13l-33.6-42.11-13.36-16.75-2.98-3.73.39-5.24,1.02-16.8-5.47-6.34s-.91-1.46-.91-1.48c.91-.68.84-2.17,1.36-3.31l5.57,6.47,3,3.46-.37,4.88-1.2,16.5,12.95,16.5,33.6,42.8Z"/><path class="uuid-f487bb19-2da2-448c-a1ea-2e1fe744f45a" d="M207.84,126.03l-.19-.33-31.85-53.44c-1.01-.46-2.11-.58-3.25-.31-3.38.81-5.59,4.9-4.95,9.12.66,4.27,3.91,7.03,7.29,6.23.52-.13,1-.32,1.45-.59l.05.05s.03.03.06.07h0l.05.05.08.1c2.87,3.48,30.9,39.53,32.91,41.88h.01c.06.09.09.12.1.12l-1.76-2.96ZM174.03,82.57c-1.37.33-2.68-.79-2.94-2.5-.27-1.71.63-3.35,1.99-3.67,1.36-.33,2.67.79,2.94,2.5.25,1.7-.63,3.35-1.99,3.67Z"/><path class="uuid-d134edf9-a43f-465a-8051-6720aa260217" d="M177.05,73.31c-.3-.21,2.67,6.31,2.35,6.17l-2.35-6.17Z"/><polygon class="uuid-c60a0447-eea4-4844-b69f-02c44ad8dfd0" points="176.07 86.35 176.34 86.71 210.34 131.21 210.34 130.32 176.07 86.35"/><path class="uuid-fceecb1d-f49f-4ec4-a272-825cbad6ec9c" d="M151.74,122.57c-3.44.21-6.09,3.86-5.92,8.18.16,4.31,3.08,7.63,6.51,7.42,1.15-.07,2.21-.52,3.1-1.25.88-.71,1.61-1.7,2.11-2.86.52-1.2.78-2.59.73-4.06-.17-4.32-3.09-7.64-6.53-7.43ZM152.02,133.71c-1.38.08-2.56-1.26-2.63-2.99-.06-1.74,1.01-3.21,2.39-3.3,1.38-.08,2.56,1.26,2.63,2.99.06,1.74-1,3.21-2.39,3.3Z"/><line class="uuid-2c142e25-7c66-4532-a313-268f9ac47062" x1="163.04" y1="140.83" x2="162.86" y2="140.6"/><line class="uuid-c8205370-42ca-4cff-b498-d267efae2d3b" x1="165.95" y1="144.4" x2="162.08" y2="145.09"/><polyline class="uuid-48003740-5d0d-471f-bdea-d3c79bbf2351" points="162.08 145.09 162.07 145.09 161.07 143.85 159.18 141.5"/><path class="uuid-d1af2f82-b93e-4595-8e83-fd8ee64a6bc0" d="M173.37,143.09l-7.43,1.3-3.86.7-1.01-1.24-1.9-2.35-3.74-4.59c.88-.71,1.61-1.7,2.11-2.86l5.31,6.55h.01l7.56-1.2,2.95,3.68Z"/><line class="uuid-32b76f5b-2d3b-44fc-b60b-1baedb9de01e" x1="162.85" y1="140.6" x2="162.57" y2="140.64"/><path class="uuid-f98eb3f0-aaf2-4180-8026-1a8a712cfa2a" d="M196.69,39.47c0,2.42-1.8,4.39-4,4.39s-4-1.96-4-4.39,1.79-4.39,4-4.39,4,1.97,4,4.39Z"/><path class="uuid-0e3ca00f-5b1e-4d72-ba21-ed28b06e9d26" d="M203.15,20.79l-2.92,3.2c-2.25-1.32-4.81-2.06-7.54-2.06s-5.29.75-7.54,2.07l-2.93-3.21c3.05-2.06,6.63-3.25,10.47-3.25s7.42,1.18,10.46,3.25Z"/><path class="uuid-575a4b24-0dbb-4a4d-aadc-bee1d97469d7" d="M214.64,8.19l-2.85,3.12c-5.33-4.35-11.94-6.93-19.1-6.93s-13.77,2.58-19.1,6.94l-2.86-3.14c6.08-5.13,13.69-8.19,21.96-8.19s15.87,3.05,21.95,8.19Z"/><path class="uuid-51d0aa61-6922-4d6f-82d7-0a5a14f79309" d="M208.92,14.46l-2.87,3.15c-3.82-2.81-8.42-4.45-13.36-4.45s-9.55,1.64-13.37,4.45l-2.87-3.15c4.57-3.59,10.18-5.69,16.24-5.69s11.65,2.11,16.23,5.69Z"/><path class="uuid-7fca5799-145b-4c83-9a13-eb84a5bb37a3" d="M197.22,27.29l-3.22,3.53c-.42-.08-.86-.12-1.31-.12s-.89.04-1.32.12l-3.22-3.53c1.4-.64,2.93-.98,4.54-.98s3.13.34,4.53.98Z"/><path class="uuid-422a0fb3-ad8a-4de1-9b3f-bcb0a664071b" d="M484.44,268.32l-.34.61-2.71,4.81c-.86,1.56-1.85,3.53-2.98,5.9l-.38.85.92.44c1.47-3.46,3.43-7.29,5.9-11.49l.37-.65-.78-.47ZM466.91,269.71c-6.42,0-9.63,5.84-9.63,17.53,0,5.44.8,9.95,2.39,13.51,1.6,3.56,3.73,5.61,6.39,6.15v-.34c-2.46-.99-4.37-3.18-5.73-6.56-1.35-3.38-2.03-7.61-2.03-12.7,0-11.16,2.93-16.75,8.78-16.75,1.83,0,3.78.83,5.83,2.48v-.44c-1.83-1.92-3.83-2.88-6-2.88ZM482.98,295.88l-.06.78c-.23,2.87-.67,5.18-1.33,6.92-.65,1.74-1.67,3.31-3.05,4.71-2.82,2.87-6.48,4.31-10.95,4.31-4.09,0-7.58-.95-10.48-2.85v.27c3.26,2.33,6.77,3.5,10.55,3.5,4.97,0,8.84-1.47,11.61-4.4,2.77-2.92,4.33-7.19,4.7-12.8l-.99-.44ZM465.83,267.81c2.69,0,4.98,1,6.88,3.02,1.9,2.01,3.11,4.73,3.63,8.17l.44.23.3-.77c1.5-3.55,3.26-7.1,5.29-10.65l.38-.65-.55-.3c-.95.65-2.02.98-3.22.98-1.11,0-2.51-.33-4.2-.98-3.24-1.24-6.12-1.87-8.65-1.87-5.33,0-9.8,2.2-13.39,6.58-3.6,4.39-5.39,9.82-5.39,16.31,0,7.03,1.73,12.61,5.18,16.73,3.46,4.13,8.13,6.19,14.01,6.19,6.58,0,10.92-2.48,13.02-7.46.99-2.35,1.49-4.62,1.49-6.81,0-1.47-.44-2.21-1.32-2.21-.68,0-1.06.48-1.15,1.43-.37,3.93-1.49,6.95-3.38,9.07-1.89,2.11-4.41,3.17-7.58,3.17-3.95,0-7.04-1.82-9.27-5.46-2.23-3.64-3.34-8.67-3.34-15.09,0-7.46,1.21-12.75,3.63-15.87,1.92-2.51,4.32-3.76,7.19-3.76Z"/><path class="uuid-422a0fb3-ad8a-4de1-9b3f-bcb0a664071b" d="M525.98,309.01c-2.11-2.83-3.91-5.92-5.43-9.26l-.24-.58-1.08-.4.14.37c1.49,3.75,3.48,7.15,5.96,10.2l-.98,2.14h-35.87l.84.92h35.4l1.53-3.06-.27-.33ZM487.53,309.62h35.4c-2.24-2.26-4.42-6.48-6.55-12.65-.63,3.66-1.87,6.29-3.71,7.88-1.84,1.6-4.56,2.39-8.16,2.39-.92,0-1.9-.04-2.91-.13v-35.61l3.29-3.35-.48-.75-3.66,3.7v36.01h-.31l-1.22-.11h-.27v-36.24l4.78-4.65h-16.2l4.68,4.31v35.36l-4.68,3.84Z"/><path class="uuid-422a0fb3-ad8a-4de1-9b3f-bcb0a664071b" d="M543.37,306.26c-1.44-1.22-2.43-2.26-2.95-3.12l-1.05-4.31.03-2.34v-25.19l3.33-3.36-.48-.71-3.83,3.73v25.43c0,3.08.36,5.35,1.09,6.82.72,1.47,2.03,2.59,3.93,3.35l-.07-.3ZM565.11,267.71l-5.05,4.13v21.7c0,6.42-.55,10.7-1.63,12.82-2.04,3.93-6.17,5.9-12.41,5.9-4.37,0-7.94-.81-10.72-2.44l-1.18-.68-.28-.13c2.81,2.78,6.99,4.17,12.55,4.17,6.44,0,10.77-2.13,12.99-6.38,1.08-2.1,1.62-6.6,1.62-13.49v-21.06l4.62-3.83-.51-.71ZM550.02,266.11l5.29,4.85-.14,21.94c0,5.72-.55,9.45-1.66,11.19-1.38,2.15-3.9,3.22-7.56,3.22-3.32,0-5.69-.71-7.09-2.12-1.4-1.41-2.1-3.8-2.1-7.17l-.07-5.22v-22.18l4.61-4.51h-16l4.61,4.14v22.51c0,6.47.94,10.84,2.81,13.13,2.36,2.89,6.49,4.34,12.42,4.34,5.6,0,9.38-1.45,11.32-4.34.77-1.13,1.28-2.58,1.54-4.34.26-1.77.39-4.66.39-8.68v-21.91l6.07-4.85h-14.44Z"/><path class="uuid-422a0fb3-ad8a-4de1-9b3f-bcb0a664071b" d="M604.61,290.66l-.41.31c2.08,2.39,3.12,5.06,3.12,8,0,5.27-2.28,8.96-6.85,11.09-2.06.95-5.41,1.42-10.07,1.42h-21.39l.57.92h23.06c5.09,0,8.94-1.22,11.56-3.67,2.69-2.5,4.04-5.68,4.04-9.52s-1.21-6.67-3.63-8.55ZM579.21,270.22c2.38-1.43,4.82-2.14,7.33-2.14,2.84,0,5.14.8,6.9,2.39,1.75,1.59,2.62,3.69,2.62,6.29,0,2.96-1.05,5.16-3.17,6.59-2.11,1.44-5.33,2.16-9.64,2.16h-1.43v-13.02c1.4-1,2.99-1.49,4.75-1.49,3.14,0,5.56,1.27,7.26,3.83l.95.54c-.86-1.85-1.91-3.17-3.14-3.93-1.23-.77-2.91-1.16-5.04-1.16-1.85,0-3.75.46-5.69,1.36v13.87h-.58l-.61-.04c-.09,0-.26.02-.51.04v-15.29ZM598.44,287.81c5.11-1.94,7.66-5.38,7.66-10.3,0-3.58-1.48-6.5-4.44-8.79l-.37-.3v.2c2.64,2.49,3.96,5.34,3.96,8.55,0,2.55-.71,4.73-2.15,6.54s-3.41,3.01-5.92,3.59c-.77-.22-1.42-.4-1.96-.54v-.37c5.33-1.56,8-4.65,8-9.26,0-3.46-1.54-6.28-4.61-8.46-3.08-2.18-7.04-3.27-11.9-3.27-6.7,0-12.73,1.78-18.11,5.32l3.83,2.04v12.75c-.38-.07-.92-.1-1.59-.1-.45,0-1.12-.04-2-.11l-.55-.03-1.49,3.26c1.92-.19,3.52-.28,4.78-.28h.85v1.8c-1.29,0-2.94.1-4.95.31l.27.98c1.79-.27,3.35-.41,4.68-.41v14.68l-4.68,4.01h24.28c4.07,0,7.32-1.02,9.76-3.04,2.45-2.02,3.67-4.72,3.67-8.09,0-2.35-.62-4.46-1.85-6.34-1.23-1.87-2.96-3.32-5.17-4.34ZM587.82,306.8l-4.91.17h-1.09v-15.83l2.78-.07c3.24,0,5.69.3,7.36.9,1.67.6,3.06,1.68,4.17,3.24h.41c-1-1.97-2.34-3.31-4.02-4.01-1.68-.7-4.4-1.05-8.15-1.05-.7,0-1.86.06-3.46.17v16.65h-1.7v-18.68c1.58-.09,2.66-.14,3.22-.14,5.77,0,9.7.66,11.8,1.99,2.11,1.32,3.16,3.78,3.16,7.37,0,5.74-3.19,8.84-9.57,9.29Z"/><path class="uuid-662d96e1-4b13-460b-a1bf-339e46ee233b" d="M534.53,72.96l-13.42,26.69s-24.73-17.54-42.8-17.54c-8.65,0-23.92.5-36.76,12.67,0,0,5.96-26.1,21.48-33.73,15.53-7.64,32.73-12.67,71.5,11.91Z"/><path class="uuid-6277168d-dbc0-42b9-ab3f-b9651a0e74ee" d="M482.84,166.28c-.34,1.76-3.36,2.43-4.87,2.18-1.37-.23-6.57-9.87-7.54-11.67.93,1.84,6.06,11.99,5.53,12.67-.59.76-2.1,3.45-3.7,3.36-1.31-.07-5.3-6.34-6.66-8.53-.02-.04-.08-.01-.06.04.95,1.91,3.3,6.78,3.03,7.65-.34,1.09-2.27,3.36-4.32,2.69-1.9-.62-5.57-6.79-6.14-7.76-.01-.01-.02,0-.02,0,.42.91,2.81,6.12,2.42,6.58-.42.51-1.93,2.44-3.52,1.85-1.6-.59-5.88-5.88-5.88-5.88,0,0,2.52.76,4.87-3.52,2.35-4.28-2.18-8.56-2.18-8.56-.17-8.73-5.04-7.72-5.04-7.72,0,0-.25-3.19-2.85-6.04-2.6-2.85-7.38,0-7.38,0,0,0-1.01-2.18-2.69-4.36-1.68-2.19-6.71.83-6.71.83,0,0-17.71-11.66-19.31-27.69-1.59-16.02,1.01-28.78,15.61-43.46,14.61-14.69,45.49-14.94,45.49-14.94,0,0-22.83,10.24-29.37,26.01-6.55,15.78-1.01,26.02,2.68,32.9s18.63,5.95,20.98,6.21c2.35.25,3.38,3.73,3.38,3.73,0,0-6.48.8-8.41,1.47-1.93.67-12.17,8.64-10.58,13.26,1.6,4.61,10.07,3.69,10.07,3.69,0,0,5.54-4.45,8.73-3.86,3.19.59,14.77,27.1,14.44,28.87Z"/><path class="uuid-410abe8e-53ea-479d-9496-36dee27c1597" d="M495.09,193.46c-2.44,9.72-4.87,13.6-4.87,13.6-7.38,12.75-20.48,20.81-46.41,19.47-2.32-.12-4.64-.37-6.93-.72-23.34-3.59-44.35-17.91-44.35-17.91l14.44-26.69c6.93,7.46,23.02,14.07,42,16.69,4.93.69,10.06,1.1,15.28,1.19,29.73.5,30.84-17.88,30.84-17.88,0,0,2.32,3.02,0,12.25Z"/><path class="uuid-5902db8e-2249-4946-8a68-223f1888be28" d="M454.51,164.05c-.08.42-3.39,2.95-6.69,4.47-2.04.94-4.07,1.48-5.31.9-3.25-1.53-3.48-6.37-3.48-6.37,0,0-4.2.9-5.83-5.38,0,0-5.4-4.15-5.42-6.96,0,0-2.07-1.85-1.84-5.16,0,0,4-4.37,6.4-4.59.18-.02.36,0,.52.02,2.29.48,3.34,1.34,3.36,3.48,0,.46-.1.9-.27,1.3-.06.15-.13.29-.21.43,0,.03-.03.05-.04.07-.16.3-.36.57-.56.81-.34.42-.69.74-.94.95-.07.06-.13.1-.18.14-.03.03-.05.04-.07.06.08-.04.2-.11.37-.21.09-.05.19-.1.3-.16.49-.28,1.2-.67,2.02-1.08,2.64-1.34,6.41-2.95,7.59-1.93,1.89,1.61,3.23,4.04,2.18,5.24-.64.74-3.58,2.3-5.74,3.39-.99.5-1.82.91-2.19,1.09.37-.17,1.2-.53,2.26-.95,2.83-1.12,7.27-2.63,8.65-1.77,2.1,1.3,2.58,3.49,2.44,4.32-.12.71-5.7,3.73-7.43,4.65-.24.13-.41.22-.47.25.07-.02.25-.07.52-.15,1.79-.51,7.42-2.01,8.3-1.05,1.05,1.13,1.89,3.52,1.76,4.19Z"/><path class="uuid-b966d240-5c7d-4478-85ea-970368d8bf6e" d="M521.11,200.3c-6.36,13.09-31.79,29.2-47.34,26.37,0,0,20.52-11.14,24.17-28.76,3.65-17.62-4.12-34.39-12.84-32.72l-13.97-28.96s3.59-.69,3.4-1.51c-.17-.73-5.69-.19-7.31.43-.12.05-.24-.08-.19-.2.29-.67.81-2.04.57-2.87-.31-1.13-4.54,7.36-9.57,7.05-5.03-.31-6.54-3.52-6.54-3.52,0,0,5.35-7.62,8.94-8.82,3.59-1.19,13.97-2.45,14.85-1.88.89.56,19.01,13.21,21.78,13.97,2.77.75,15.86,7.87,22.03,21.4,6.17,13.53,8.37,26.93,2.02,40.02Z"/><path class="uuid-731834b8-ff30-4ca6-b891-3519ee2e2f04" d="M123.86,127.75l-56.81,62.67s3.91,14.39.18,24.36c-3.73,9.98-19.62,30.65-40.51,24.26l20.75-22.68-5-22.01-19.94-5L1.59,212.62s-5.56-8.84,4.09-29.56c9.66-20.73,40.79-14.15,40.79-14.15l51.08-55.11s1.44-16.09-6.01-19.74c-7.01-3.44-16.48-3.44-16.48-3.44l-22.4-.29-.09,36.54,26.5-.29-33.23,36.24s-9.97-1.96-14.3-1.18c-4.32.79-13.75,3.98-13.75,3.98l-.18-107.21h66.1s26.86.09,37.69,16.5c9.25,13.99,7.1,20.62,7.1,20.62l-70.92,77.79s-.82,2.31.18,3.73c1,1.43,3.55,2.02,4.19,1.38.64-.63,67.37-72.88,67.37-72.88,0,0,1.1,10.91-5.46,22.2Z"/><polygon class="uuid-e39f087f-d6bd-4440-9cf5-c4f4455f9f18" points="42.92 214.58 32.18 226.76 17.98 226.76 17.98 201.42 24.17 194.94 39.1 198.18 42.92 214.58"/><path class="uuid-56e1222b-2e2e-4373-9ed1-15eb4fcefc9d" d="M128.14,214.39c-4.92,4.32-17.21,10.11-30.04,11.39-12.84,1.27-30.6,0-30.6,0,0,0,6.74-8.25,6.01-16.11s-2.38-15.91-2.38-15.91c0,0,21.55.73,27.51-2.75,4.55-2.65,8.01-5.3,7.47-19.25,0,0-1.73-9.43-5.1-11.2l16.99-18.27s20.61,8.06,23.43,29.67c2.83,21.6-5.45,35.54-13.29,42.43Z"/><path class="uuid-9501c1ba-913b-4deb-83f9-f740b9ed6fcc" d="M391.07,59.18v42.88c0,1.17-.94,2.13-2.1,2.13h-57.49c-1.16,0-2.1.95-2.1,2.13v120.61c0,1.17-.94,2.13-2.1,2.13h-42.39c-1.16,0-2.1-.95-2.1-2.13v-51.92c0-.33.08-.66.22-.96l34.73-69.86,11.64-23.42,11.21-22.55c.36-.72,1.08-1.17,1.88-1.17h46.5c1.16,0,2.1.95,2.1,2.13Z"/><path class="uuid-2c9d2af7-63cf-4dae-bc9f-07d5aa1b6c1e" d="M289.97,57.05c2.22,0,2.92,3.02.94,4.03l-8.13,4.14-58.64,29.85c-1.4.71-3.05-.32-3.05-1.9v-33.99c0-1.17.94-2.13,2.1-2.13h66.77Z"/><path class="uuid-172904eb-8f0f-44c0-9d81-2308f8e9a173" d="M326.62,64.1l-19.5,40.09-20.34,41.82c-.98,2.02-3.99,1.32-3.99-.94v-38.75c0-1.17-.94-2.13-2.1-2.13h-42.72c-2.23,0-2.93-3.04-.93-4.03l45.75-22.78,38.17-19.01c3.62-1.81,7.44,2.07,5.66,5.73Z"/></svg>